<svg width="1280" height="720" xmlns="http://www.w3.org/2000/svg" xmlns:xlink="http://www.w3.org/1999/xlink" overflow="hidden"><defs><clipPath id="clip0"><rect x="0" y="0" width="1280" height="720"/></clipPath></defs><g clip-path="url(#clip0)"><rect x="0" y="0" width="1280" height="720" fill="#FFFFFF"/><path d="M680.5 244.5C680.5 240.082 684.082 236.5 688.5 236.5L720.5 236.5C724.918 236.5 728.5 240.082 728.5 244.5L728.5 428.5C728.5 432.918 724.918 436.5 720.5 436.5L688.5 436.5C684.082 436.5 680.5 432.918 680.5 428.5Z" stroke="#000000" stroke-width="1.33333" stroke-miterlimit="8" fill="none" fill-rule="evenodd"/><path d="M616.5 308.5C616.5 304.082 620.082 300.5 624.5 300.5L656.5 300.5C660.918 300.5 664.5 304.082 664.5 308.5L664.5 428.5C664.5 432.918 660.918 436.5 656.5 436.5L624.5 436.5C620.082 436.5 616.5 432.918 616.5 428.5Z" stroke="#000000" stroke-width="1.33333" stroke-miterlimit="8" fill="#FFFFFF" fill-rule="evenodd"/><path d="M552.5 372.5C552.5 368.082 556.082 364.5 560.5 364.5L592.5 364.5C596.918 364.5 600.5 368.082 600.5 372.5L600.5 428.5C600.5 432.918 596.918 436.5 592.5 436.5L560.5 436.5C556.082 436.5 552.5 432.918 552.5 428.5Z" stroke="#000000" stroke-width="1.33333" stroke-miterlimit="8" fill="#FFFFFF" fill-rule="evenodd"/></g></svg>