<svg width="1280" height="720" xmlns="http://www.w3.org/2000/svg" xmlns:xlink="http://www.w3.org/1999/xlink" overflow="hidden"><defs><clipPath id="clip0"><rect x="0" y="0" width="1280" height="720"/></clipPath></defs><g clip-path="url(#clip0)"><rect x="0" y="0" width="1280" height="720" fill="#FFFFFF"/><path d="M680.5 260.5C680.5 247.245 691.245 236.5 704.5 236.5L704.5 236.5C717.755 236.5 728.5 247.245 728.5 260.5L728.5 412.5C728.5 425.755 717.755 436.5 704.5 436.5L704.5 436.5C691.245 436.5 680.5 425.755 680.5 412.5Z" stroke="#FFFFFF" stroke-width="1.33333" stroke-miterlimit="8" fill="none" fill-rule="evenodd"/><path d="M616.5 324.5C616.5 311.245 627.245 300.5 640.5 300.5L640.5 300.5C653.755 300.5 664.5 311.245 664.5 324.5L664.5 412.5C664.5 425.755 653.755 436.5 640.5 436.5L640.5 436.5C627.245 436.5 616.5 425.755 616.5 412.5Z" stroke="#FFFFFF" stroke-width="1.33333" stroke-miterlimit="8" fill="#FFFFFF" fill-rule="evenodd"/><path d="M552.5 388.5C552.5 375.245 563.245 364.5 576.5 364.5L576.5 364.5C589.755 364.5 600.5 375.245 600.5 388.5L600.5 412.5C600.5 425.755 589.755 436.5 576.5 436.5L576.5 436.5C563.245 436.5 552.5 425.755 552.5 412.5Z" stroke="#FFFFFF" stroke-width="1.33333" stroke-miterlimit="8" fill="#FFFFFF" fill-rule="evenodd"/></g></svg>